HIERARCHY
ROOT Hips
{
	OFFSET 0.000000 0.000000 0.000000
	CHANNELS 6 Xposition Yposition Zposition Xrotation Yrotation Zrotation
	JOINT LeftUpLeg_virtual
	{
		OFFSET 0.000000 0.000000 0.000000
		CHANNELS 3 Xrotation Yrotation Zrotation
		JOINT LeftUpLeg
		{
			OFFSET 15.427100 -6.655098 0.678600
			CHANNELS 3 Xrotation Yrotation Zrotation
			JOINT LeftLeg
			{
				OFFSET 4.081073 -39.591068 13.024000
				CHANNELS 3 Xrotation Yrotation Zrotation
				JOINT LeftFoot
				{
					OFFSET -4.081074 -37.707932 -15.979700
					CHANNELS 3 Xrotation Yrotation Zrotation
					JOINT LeftToeBase
					{
						OFFSET 5.346399 -15.068900 20.645000
						CHANNELS 3 Xrotation Yrotation Zrotation
						JOINT LeftToe_End
						{
							OFFSET 2.754700 0.931300 11.300900
							CHANNELS 3 Xrotation Yrotation Zrotation
							End Site
							{
								OFFSET 0 0 0
							}
						}
					}
				}
			}
		}
	}
	JOINT RightUpLeg_virtual
	{
		OFFSET 0.000000 0.000000 0.000000
		CHANNELS 3 Xrotation Yrotation Zrotation
		JOINT RightUpLeg
		{
			OFFSET -15.569500 -6.655098 0.678600
			CHANNELS 3 Xrotation Yrotation Zrotation
			JOINT RightLeg
			{
				OFFSET -4.081825 -39.591045 13.023800
				CHANNELS 3 Xrotation Yrotation Zrotation
				JOINT RightFoot
				{
					OFFSET 4.081824 -37.707954 -15.979600
					CHANNELS 3 Xrotation Yrotation Zrotation
					JOINT RightToeBase
					{
						OFFSET -5.346400 -15.068900 20.645000
						CHANNELS 3 Xrotation Yrotation Zrotation
						JOINT RightToe_End
						{
							OFFSET -2.754700 0.931300 11.300900
							CHANNELS 3 Xrotation Yrotation Zrotation
							End Site
							{
								OFFSET 0 0 0
							}
						}
					}
				}
			}
		}
	}
	JOINT Spine_virtual
	{
		OFFSET 0.000000 0.000000 0.000000
		CHANNELS 3 Xrotation Yrotation Zrotation
		JOINT Spine
		{
			OFFSET -0.279200 12.230698 -2.892100
			CHANNELS 3 Xrotation Yrotation Zrotation
			JOINT Spine1
			{
				OFFSET -0.232667 10.192268 -1.242267
				CHANNELS 3 Xrotation Yrotation Zrotation
				JOINT Spine1_split
				{
					OFFSET -0.232667 10.192268 -1.242267
					CHANNELS 3 Xrotation Yrotation Zrotation
					JOINT Spine2
					{
						OFFSET -0.232667 10.192268 -1.242267
						CHANNELS 3 Xrotation Yrotation Zrotation
						JOINT Neck_virtual
						{
							OFFSET 0.000000 0.000000 0.000000
							CHANNELS 3 Xrotation Yrotation Zrotation
							JOINT Neck
							{
								OFFSET -0.418800 17.814194 8.416900
								CHANNELS 3 Xrotation Yrotation Zrotation
								JOINT Head
								{
									OFFSET 0.000000 7.031097 3.806800
									CHANNELS 3 Xrotation Yrotation Zrotation
									JOINT HeadTop_End
									{
										OFFSET 0.000000 24.646606 12.978600
										CHANNELS 3 Xrotation Yrotation Zrotation
										End Site
										{
											OFFSET 0 0 0
										}
									}
								}
							}
						}
						JOINT LeftShoulder_virtual
						{
							OFFSET 0.000000 0.000000 0.000000
							CHANNELS 3 Xrotation Yrotation Zrotation
							JOINT LeftShoulder
							{
								OFFSET 8.476499 7.247704 -3.868750
								CHANNELS 3 Xrotation Yrotation Zrotation
								JOINT LeftShoulder_split
								{
									OFFSET 8.476499 7.247704 -3.868750
									CHANNELS 3 Xrotation Yrotation Zrotation
									JOINT LeftArm
									{
										OFFSET 9.308998 -2.777710 0.208600
										CHANNELS 3 Xrotation Yrotation Zrotation
										JOINT LeftForeArm
										{
											OFFSET 29.972298 0.000000 0.000000
											CHANNELS 3 Xrotation Yrotation Zrotation
											JOINT LeftHand
											{
												OFFSET 26.026505 0.000000 0.000000
												CHANNELS 3 Xrotation Yrotation Zrotation
												End Site
												{
													OFFSET 0 0 0
												}
											}
										}
									}
								}
							}
						}
						JOINT RightShoulder_virtual
						{
							OFFSET 0.000000 0.000000 0.000000
							CHANNELS 3 Xrotation Yrotation Zrotation
							JOINT RightShoulder
							{
								OFFSET -7.570500 7.247704 -3.868750
								CHANNELS 3 Xrotation Yrotation Zrotation
								JOINT RightShoulder_split
								{
									OFFSET -7.570500 7.247704 -3.868750
									CHANNELS 3 Xrotation Yrotation Zrotation
									JOINT RightArm
									{
										OFFSET -9.308998 -2.777710 0.208500
										CHANNELS 3 Xrotation Yrotation Zrotation
										JOINT RightForeArm
										{
											OFFSET -29.972300 0.000000 0.000000
											CHANNELS 3 Xrotation Yrotation Zrotation
											JOINT RightHand
											{
												OFFSET -26.026505 0.000000 0.000000
												CHANNELS 3 Xrotation Yrotation Zrotation
												End Site
												{
													OFFSET 0 0 0
												}
											}
										}
									}
								}
							}
						}
					}
				}
			}
		}
	}
}
MOTION
Frames: 9
Frame Time: 0.03333333
-1.803698 79.163689 -8.164516 0.000000 0.000000 0.000000 5.773458 -54.164998 5.687274 -33.557027 18.501531 33.534624 36.159076 -14.149716 -6.789668 -6.414768 0.262519 -11.641876 -1.016610 -2.213079 -2.575982 0.000000 0.000000 0.000000 4.988176 -52.807826 5.217834 -26.076494 -3.810597 -26.692436 39.209592 15.526560 -0.170081 -15.603483 -6.147370 28.457073 6.918096 7.519266 -10.705115 0.000000 0.000000 0.000000 1.958969 -44.279328 3.310922 5.461404 4.004732 -3.033925 10.358848 -4.552854 -3.867487 0.206511 -0.441793 0.124124 0.000000 0.000000 0.000000 13.803600 -1.521627 -3.921509 -17.004478 28.332315 2.088866 -40.044846 48.926421 19.453186 0.000000 0.000000 0.000000 13.827531 -4.008056 -4.288366 -0.531982 -5.031360 -0.428648 -2.436208 -3.378034 -0.743928 -31.308153 -0.209961 -33.279834 28.006012 -44.846885 19.991264 0.000000 0.000000 0.000000 15.342946 -2.811192 -3.663982 -9.031866 9.111847 -0.351095 6.192212 3.790946 2.700186 -44.001018 -25.356736 30.551781 177.538842 66.732519 -177.620777 0.000000 0.000000 0.000000 
-1.833304 79.179855 -8.170673 0.000000 0.000000 0.000000 5.665121 -54.067661 5.815055 -33.053751 18.436977 33.146304 35.423495 -13.916884 -6.689111 -6.282236 0.290770 -11.950259 -0.526384 -2.229404 -2.589706 0.000000 0.000000 0.000000 5.045564 -52.820728 5.485040 -26.106735 -3.282615 -26.938034 39.275405 15.616466 -0.201274 -15.714435 -5.995438 29.016956 6.932831 7.618381 -10.830450 0.000000 0.000000 0.000000 2.285367 -44.151535 3.579127 5.518436 3.840802 -3.098464 10.556735 -4.447011 -3.678966 0.159464 -0.409293 0.143001 0.000000 0.000000 0.000000 13.836853 -1.378421 -3.739255 -16.117467 27.891969 2.169521 -38.026846 47.361751 17.953702 0.000000 0.000000 0.000000 13.901808 -3.907526 -4.172512 -0.473099 -4.823123 -1.496477 -2.565766 -3.312211 -0.639852 -29.556885 0.187940 -33.188640 28.741439 -45.660286 20.503746 0.000000 0.000000 0.000000 15.359934 -2.652242 -3.436948 -8.948233 9.471679 0.165401 6.699901 3.417960 3.044834 -45.072439 -24.537656 29.712361 178.986624 65.736220 -179.105360 0.000000 0.000000 0.000000 
-1.906495 79.368927 -8.154385 0.000000 0.000000 0.000000 5.860789 -53.974002 6.302612 -32.551893 18.393853 32.529841 34.520596 -13.654767 -6.607082 -6.027176 0.392139 -12.315701 -0.158864 -2.235816 -2.556646 0.000000 0.000000 0.000000 5.299508 -52.831725 6.010525 -26.175040 -3.030523 -27.173189 39.172327 15.590477 -0.181470 -15.741260 -6.021337 29.493238 6.849839 7.728121 -10.901269 0.000000 0.000000 0.000000 2.925228 -44.063473 4.139405 5.641821 3.663769 -3.267570 10.673347 -4.276679 -3.496581 0.116882 -0.412870 0.149234 0.000000 0.000000 0.000000 13.908115 -1.183482 -3.565000 -15.585402 27.466204 2.376558 -36.848068 46.204871 16.837139 0.000000 0.000000 0.000000 13.922810 -3.741409 -4.059477 -0.368907 -4.521980 -2.303741 -2.721790 -3.070776 -0.723152 -27.944322 0.279799 -33.131994 28.928815 -45.541864 20.481832 0.000000 0.000000 0.000000 15.318161 -2.451679 -3.220352 -8.935110 9.572344 0.734294 7.154818 3.078100 3.496753 -45.807709 -23.283365 29.362580 -179.674096 65.453703 179.508723 0.000000 0.000000 0.000000 
-1.988123 79.578148 -8.095020 0.000000 0.000000 0.000000 6.190204 -53.921475 7.018615 -32.190429 18.355228 31.773374 33.808555 -13.461886 -6.487556 -5.756159 0.509807 -12.745282 -0.086932 -2.219531 -2.508266 0.000000 0.000000 0.000000 5.664841 -52.867126 6.709058 -26.302358 -3.039770 -27.401303 39.164284 15.446796 -0.161523 -15.905236 -6.267321 29.748534 6.821060 7.811797 -10.865475 0.000000 0.000000 0.000000 3.595110 -44.018971 4.841831 5.859561 3.508065 -3.540529 10.737547 -4.071238 -3.352630 0.091669 -0.441510 0.118565 0.000000 0.000000 0.000000 14.040194 -0.970101 -3.438526 -15.448034 27.058522 2.691358 -36.385910 45.495357 16.094663 0.000000 0.000000 0.000000 13.938938 -3.539234 -3.968336 -0.225732 -4.234727 -2.667106 -2.899597 -2.793234 -0.949704 -26.747458 0.035504 -32.996115 28.529480 -44.503573 19.967303 0.000000 0.000000 0.000000 15.292843 -2.236477 -3.044895 -8.957183 9.461625 1.239211 7.402418 2.862034 3.803240 -46.262937 -22.082405 29.482515 -178.530449 65.617819 178.296050 0.000000 0.000000 0.000000 
-2.044810 79.700668 -7.991070 0.000000 0.000000 0.000000 6.592434 -53.932007 7.863423 -31.970989 18.309603 30.942816 33.457012 -13.311024 -6.328309 -5.634449 0.662596 -13.130952 -0.198081 -2.175119 -2.557502 0.000000 0.000000 0.000000 6.035285 -52.910648 7.485313 -26.467403 -3.207473 -27.645127 39.348952 15.234117 -0.167531 -16.247268 -6.677622 29.788214 6.753387 7.867785 -10.695399 0.000000 0.000000 0.000000 4.081631 -44.006663 5.557590 6.170892 3.389362 -3.883338 10.769286 -3.877704 -3.282614 0.102623 -0.482101 0.086634 0.000000 0.000000 0.000000 14.235823 -0.767438 -3.395951 -15.553249 26.703058 3.040207 -36.408002 45.246267 15.691438 0.000000 0.000000 0.000000 13.987670 -3.339452 -3.923522 -0.059282 -3.961217 -2.579034 -3.013973 -2.755976 -1.159647 -26.074153 -0.436609 -32.812198 27.788377 -42.903803 19.236613 0.000000 0.000000 0.000000 15.328435 -2.034728 -2.956842 -8.974762 9.203056 1.534460 7.495346 2.867863 3.904329 -46.534291 -21.350847 29.943396 -177.713299 65.899632 177.376734 0.000000 0.000000 0.000000 
-2.077527 79.704147 -7.878983 0.000000 0.000000 0.000000 6.987671 -53.950524 8.698098 -31.943996 18.216364 30.162822 33.428080 -13.241877 -6.136295 -5.626484 0.833737 -13.547132 -0.293705 -2.085178 -2.774466 0.000000 0.000000 0.000000 6.425867 -52.911652 8.260076 -26.641882 -3.419508 -27.901857 39.743549 15.035987 -0.235632 -16.690807 -7.114372 29.755958 6.616362 7.893032 -10.422140 0.000000 0.000000 0.000000 4.326810 -44.005860 6.195375 6.509114 3.317529 -4.213101 10.776736 -3.722166 -3.311194 0.109496 -0.510863 0.072971 0.000000 0.000000 0.000000 14.438294 -0.607960 -3.461804 -15.730349 26.414831 3.338421 -36.508847 45.488367 15.506105 0.000000 0.000000 0.000000 14.060429 -3.169171 -3.951830 0.116797 -3.729009 -2.154902 -3.100359 -2.899303 -1.471295 -25.887833 -0.883636 -32.637823 26.931701 -41.165557 18.525664 0.000000 0.000000 0.000000 15.407363 -1.877280 -2.983150 -8.979131 8.887443 1.586845 7.574517 3.080946 3.727447 -46.604143 -21.367434 30.653435 -177.291712 66.003820 176.816413 0.000000 0.000000 0.000000 
-2.106650 79.612175 -7.748756 0.000000 0.000000 0.000000 7.381856 -53.956275 9.442230 -32.032853 18.115479 29.546425 33.526407 -13.262217 -5.963602 -5.629897 0.932636 -14.028184 -0.425335 -1.968011 -3.042637 0.000000 0.000000 0.000000 6.824885 -52.851673 8.972413 -26.800037 -3.572162 -28.169650 40.229309 14.919240 -0.359349 -17.155219 -7.427499 29.790519 6.434918 7.907739 -10.114124 0.000000 0.000000 0.000000 4.406348 -44.046343 6.729765 6.797541 3.291345 -4.444450 10.748554 -3.630084 -3.434098 0.116230 -0.523877 0.070368 0.000000 0.000000 0.000000 14.589764 -0.519578 -3.632149 -15.812050 26.222128 3.496088 -36.435928 46.134093 15.432399 0.000000 0.000000 0.000000 14.134720 -3.066076 -4.063867 0.300193 -3.586017 -1.543462 -3.093100 -3.076235 -1.797619 -25.961821 -1.069101 -32.547419 26.088218 -39.648063 17.935541 0.000000 0.000000 0.000000 15.516421 -1.786257 -3.114650 -8.962228 8.639902 1.431394 7.604523 3.286284 3.426463 -46.471234 -22.132606 31.528447 -177.252643 65.828482 176.647106 0.000000 0.000000 0.000000 
-2.158765 79.481117 -7.617317 0.000000 0.000000 0.000000 7.790301 -53.958525 10.088066 -32.165905 18.069998 29.136757 33.591038 -13.300968 -5.864456 -5.630028 0.960093 -14.404212 -0.487445 -1.856541 -3.307313 0.000000 0.000000 0.000000 7.224271 -52.678599 9.579211 -26.944342 -3.628733 -28.450318 40.688926 14.902996 -0.516672 -17.581016 -7.576631 29.942002 6.272191 7.917729 -9.841754 0.000000 0.000000 0.000000 4.406738 -44.118145 7.180320 7.013185 3.291943 -4.521639 10.680386 -3.614980 -3.637101 0.119950 -0.507582 0.085583 0.000000 0.000000 0.000000 14.661940 -0.514978 -3.872356 -15.698478 26.155163 3.444238 -36.053113 47.179016 15.368294 0.000000 0.000000 0.000000 14.186469 -3.054873 -4.258512 0.489755 -3.519039 -0.923724 -3.106254 -3.218166 -2.068715 -26.097955 -0.868023 -32.603030 25.300255 -38.496094 17.465844 0.000000 0.000000 0.000000 15.598182 -1.778742 -3.328498 -8.930583 8.508109 1.114205 7.691313 3.529468 3.070601 -46.136736 -23.333576 32.430435 -177.404410 65.520837 176.705736 0.000000 0.000000 0.000000 
-2.252132 79.351387 -7.505966 0.000000 0.000000 0.000000 8.165037 -53.918268 10.612427 -32.371886 18.093344 28.969308 33.580646 -13.374610 -5.845661 -5.598996 0.882290 -14.611866 -0.417458 -1.773765 -3.487240 0.000000 0.000000 0.000000 7.625840 -52.470852 10.086466 -27.098086 -3.619757 -28.697634 41.130057 14.943243 -0.678234 -17.976059 -7.595476 30.141464 6.257696 7.923689 -9.657969 0.000000 0.000000 0.000000 4.463655 -44.161131 7.589086 7.137213 3.311872 -4.411950 10.583627 -3.665433 -3.876898 0.104838 -0.477176 0.087581 0.000000 0.000000 0.000000 14.632676 -0.585703 -4.143270 -15.377730 26.211293 3.162448 -35.387002 48.518672 15.220395 0.000000 0.000000 0.000000 14.198025 -3.125858 -4.504021 0.675454 -3.537472 -0.403270 -3.199933 -3.246619 -2.284214 -26.191723 -0.369137 -32.775363 24.530023 -37.651452 17.045710 0.000000 0.000000 0.000000 15.627094 -1.844330 -3.575710 -8.884895 8.537368 0.736906 7.887874 3.705113 2.791589 -45.631497 -24.488542 33.213625 -177.544210 65.265804 176.805061 0.000000 0.000000 0.000000 
